<svg width="360" height="480" viewBox="0 0 360 480" fill="none" xmlns="http://www.w3.org/2000/svg">
<rect y="480" width="480" height="360" transform="rotate(-90 0 480)" fill="#313131"/>
<path d="M214.043 219.225C200.132 219.225 185.973 218.66 172.727 214.97C159.731 211.364 147.798 204.367 137.162 196.273C130.198 191.005 123.866 186.817 114.825 187.449C105.979 187.919 97.5182 191.223 90.6939 196.872C79.1933 206.943 80.9218 225.59 85.5253 238.669C92.4389 258.397 113.479 272.124 131.361 281.032C152.019 291.353 174.721 297.336 197.473 300.792C217.416 303.817 243.043 306.028 260.327 292.998C276.199 281.032 280.553 253.71 276.664 235.262C275.722 229.808 272.82 224.885 268.504 221.419C257.353 213.275 240.717 218.71 228.186 218.992C223.532 219.092 218.796 219.192 214.043 219.225Z" fill="#727272"/>
<path d="M180.006 333.117C213.701 333.117 241.016 331.413 241.016 329.311C241.016 327.209 213.701 325.505 180.006 325.505C146.311 325.505 118.997 327.209 118.997 329.311C118.997 331.413 146.311 333.117 180.006 333.117Z" fill="#727272"/>
<path d="M256.139 167.389C257.039 167.389 257.768 166.66 257.768 165.76C257.768 164.861 257.039 164.132 256.139 164.132C255.24 164.132 254.511 164.861 254.511 165.76C254.511 166.66 255.24 167.389 256.139 167.389Z" fill="#CFCFCF"/>
<path d="M147.798 153.745C148.698 153.745 149.427 153.015 149.427 152.116C149.427 151.216 148.698 150.487 147.798 150.487C146.899 150.487 146.17 151.216 146.17 152.116C146.17 153.015 146.899 153.745 147.798 153.745Z" fill="#CFCFCF"/>
<path d="M167.492 308.82C168.391 308.82 169.12 308.09 169.12 307.191C169.12 306.291 168.391 305.562 167.492 305.562C166.592 305.562 165.863 306.291 165.863 307.191C165.863 308.09 166.592 308.82 167.492 308.82Z" fill="#CFCFCF"/>
<path d="M210.968 146V153.146" stroke="#BABABA" stroke-linecap="round" stroke-linejoin="round"/>
<path d="M207.395 149.573H214.541" stroke="#BABABA" stroke-linecap="round" stroke-linejoin="round"/>
<path d="M94.5328 176.081V183.227" stroke="#BABABA" stroke-linecap="round" stroke-linejoin="round"/>
<path d="M90.9437 179.654H98.1067" stroke="#BABABA" stroke-linecap="round" stroke-linejoin="round"/>
<path d="M99.9177 275.647V282.81" stroke="#BABABA" stroke-linecap="round" stroke-linejoin="round"/>
<path d="M96.3279 279.221H103.491" stroke="#BABABA" stroke-linecap="round" stroke-linejoin="round"/>
<path d="M247.581 202.373V209.519" stroke="#BABABA" stroke-linecap="round" stroke-linejoin="round"/>
<path d="M244.007 205.946H251.154" stroke="#BABABA" stroke-linecap="round" stroke-linejoin="round"/>
<path d="M197.771 160.679L114.354 171.633C108.947 172.343 105.14 177.301 105.85 182.708L118.565 279.535C119.275 284.941 124.233 288.749 129.64 288.039L213.057 277.085C218.464 276.375 222.271 271.417 221.561 266.01L208.847 169.183C208.137 163.777 203.178 159.969 197.771 160.679Z" fill="#A2A2A2"/>
<path d="M222.07 174.884H137.81C132.348 174.884 127.921 179.312 127.921 184.773V282.578C127.921 288.039 132.348 292.466 137.81 292.466H222.07C227.531 292.466 231.958 288.039 231.958 282.578V184.773C231.958 179.312 227.531 174.884 222.07 174.884Z" fill="#454545" stroke="#8A8A8A" stroke-linecap="round" stroke-linejoin="round"/>
<path d="M140.502 252.264L157.354 224.792C157.52 224.391 157.801 224.048 158.162 223.806C158.523 223.565 158.948 223.436 159.382 223.436C159.816 223.436 160.24 223.565 160.601 223.806C160.962 224.048 161.244 224.391 161.409 224.792L170.965 240.365C171.128 240.767 171.407 241.112 171.767 241.355C172.126 241.598 172.551 241.728 172.985 241.728C173.419 241.728 173.843 241.598 174.203 241.355C174.563 241.112 174.842 240.767 175.004 240.365L191.357 213.774C191.52 213.371 191.799 213.026 192.158 212.783C192.518 212.54 192.942 212.41 193.377 212.41C193.811 212.41 194.235 212.54 194.595 212.783C194.955 213.026 195.234 213.371 195.396 213.774L219.394 252.879L140.502 252.264Z" fill="#454545" stroke="#BABABA" stroke-linecap="round" stroke-linejoin="round"/>
<path d="M174.106 221.103C177.034 221.103 179.408 218.729 179.408 215.801C179.408 212.873 177.034 210.5 174.106 210.5C171.178 210.5 168.805 212.873 168.805 215.801C168.805 218.729 171.178 221.103 174.106 221.103Z" fill="#454545" stroke="#BABABA" stroke-linecap="round" stroke-linejoin="round"/>
</svg>
