<svg width="480" height="360" viewBox="0 0 480 360" fill="none" xmlns="http://www.w3.org/2000/svg">
<rect width="480" height="360" fill="#313131"/>
<path d="M240.006 273.117C273.701 273.117 301.016 271.413 301.016 269.311C301.016 267.209 273.701 265.505 240.006 265.505C206.311 265.505 178.997 267.209 178.997 269.311C178.997 271.413 206.311 273.117 240.006 273.117Z" fill="#727272"/>
<path d="M257.771 100.679L174.354 111.633C168.947 112.343 165.14 117.301 165.85 122.708L178.565 219.535C179.275 224.941 184.233 228.749 189.64 228.039L273.057 217.085C278.464 216.375 282.271 211.417 281.561 206.01L268.847 109.183C268.137 103.777 263.178 99.9691 257.771 100.679Z" fill="#A2A2A2"/>
<path d="M282.07 114.884H197.81C192.348 114.884 187.921 119.312 187.921 124.773V222.578C187.921 228.039 192.348 232.466 197.81 232.466H282.07C287.531 232.466 291.958 228.039 291.958 222.578V124.773C291.958 119.312 287.531 114.884 282.07 114.884Z" fill="#454545" stroke="#8A8A8A" stroke-linecap="round" stroke-linejoin="round"/>
<path d="M200.502 192.264L217.354 164.792C217.52 164.391 217.801 164.048 218.162 163.806C218.523 163.565 218.948 163.436 219.382 163.436C219.816 163.436 220.24 163.565 220.601 163.806C220.962 164.048 221.244 164.391 221.409 164.792L230.965 180.365C231.128 180.767 231.407 181.112 231.767 181.355C232.126 181.598 232.551 181.728 232.985 181.728C233.419 181.728 233.843 181.598 234.203 181.355C234.563 181.112 234.842 180.767 235.004 180.365L251.357 153.774C251.52 153.371 251.799 153.026 252.158 152.783C252.518 152.54 252.942 152.41 253.377 152.41C253.811 152.41 254.235 152.54 254.595 152.783C254.955 153.026 255.234 153.371 255.396 153.774L279.394 192.879L200.502 192.264Z" fill="#454545" stroke="#BABABA" stroke-linecap="round" stroke-linejoin="round"/>
<path d="M234.106 161.103C237.034 161.103 239.408 158.729 239.408 155.801C239.408 152.873 237.034 150.5 234.106 150.5C231.179 150.5 228.805 152.873 228.805 155.801C228.805 158.729 231.179 161.103 234.106 161.103Z" fill="#454545" stroke="#BABABA" stroke-linecap="round" stroke-linejoin="round"/>
<path d="M292.5 136C304.374 136 314 126.374 314 114.5C314 102.626 304.374 93 292.5 93C280.626 93 271 102.626 271 114.5C271 126.374 280.626 136 292.5 136Z" fill="#7B7B7B"/>
<path d="M283.148 105.148L301.833 123.852" stroke="white" stroke-width="1.1" stroke-linecap="round" stroke-linejoin="round"/>
<path d="M301.833 105.148L283.148 123.852" stroke="white" stroke-width="1.1" stroke-linecap="round" stroke-linejoin="round"/>
</svg>
