<svg width="360" height="480" viewBox="0 0 360 480" fill="none" xmlns="http://www.w3.org/2000/svg">
<rect y="480" width="480" height="360" transform="rotate(-90 0 480)" fill="#313131"/>
<path d="M180.006 333.117C213.701 333.117 241.016 331.413 241.016 329.311C241.016 327.209 213.701 325.505 180.006 325.505C146.311 325.505 118.997 327.209 118.997 329.311C118.997 331.413 146.311 333.117 180.006 333.117Z" fill="#727272"/>
<path d="M197.771 160.679L114.354 171.633C108.947 172.343 105.14 177.301 105.85 182.708L118.565 279.535C119.275 284.941 124.233 288.749 129.64 288.039L213.057 277.085C218.464 276.375 222.271 271.417 221.561 266.01L208.847 169.183C208.137 163.777 203.178 159.969 197.771 160.679Z" fill="#A2A2A2"/>
<path d="M222.07 174.884H137.81C132.348 174.884 127.921 179.312 127.921 184.773V282.578C127.921 288.039 132.348 292.466 137.81 292.466H222.07C227.531 292.466 231.958 288.039 231.958 282.578V184.773C231.958 179.312 227.531 174.884 222.07 174.884Z" fill="#454545" stroke="#8A8A8A" stroke-linecap="round" stroke-linejoin="round"/>
<path d="M140.502 252.264L157.354 224.792C157.52 224.391 157.801 224.048 158.162 223.806C158.523 223.565 158.948 223.436 159.382 223.436C159.816 223.436 160.24 223.565 160.601 223.806C160.962 224.048 161.244 224.391 161.409 224.792L170.965 240.365C171.128 240.767 171.407 241.112 171.767 241.355C172.126 241.598 172.551 241.728 172.985 241.728C173.419 241.728 173.843 241.598 174.203 241.355C174.563 241.112 174.842 240.767 175.004 240.365L191.357 213.774C191.52 213.371 191.799 213.026 192.158 212.783C192.518 212.54 192.942 212.41 193.377 212.41C193.811 212.41 194.235 212.54 194.595 212.783C194.955 213.026 195.234 213.371 195.396 213.774L219.394 252.879L140.502 252.264Z" fill="#454545" stroke="#BABABA" stroke-linecap="round" stroke-linejoin="round"/>
<path d="M174.106 221.103C177.034 221.103 179.408 218.729 179.408 215.801C179.408 212.873 177.034 210.5 174.106 210.5C171.179 210.5 168.805 212.873 168.805 215.801C168.805 218.729 171.179 221.103 174.106 221.103Z" fill="#454545" stroke="#BABABA" stroke-linecap="round" stroke-linejoin="round"/>
<path d="M232.5 196C244.374 196 254 186.374 254 174.5C254 162.626 244.374 153 232.5 153C220.626 153 211 162.626 211 174.5C211 186.374 220.626 196 232.5 196Z" fill="#7B7B7B"/>
<path d="M223.148 165.148L241.833 183.852" stroke="white" stroke-width="1.1" stroke-linecap="round" stroke-linejoin="round"/>
<path d="M241.833 165.148L223.148 183.852" stroke="white" stroke-width="1.1" stroke-linecap="round" stroke-linejoin="round"/>
</svg>
