<svg width="480" height="360" viewBox="0 0 480 360" fill="none" xmlns="http://www.w3.org/2000/svg">
<rect width="480" height="360" fill="#E6E6E6"/>
<path d="M274.043 159.225C260.132 159.225 245.973 158.66 232.727 154.97C219.731 151.364 207.798 144.367 197.162 136.273C190.198 131.005 183.866 126.817 174.825 127.449C165.979 127.919 157.518 131.223 150.694 136.872C139.193 146.943 140.922 165.59 145.525 178.669C152.439 198.397 173.479 212.124 191.361 221.032C212.019 231.353 234.721 237.336 257.473 240.792C277.416 243.817 303.043 246.028 320.327 232.998C336.199 221.032 340.553 193.71 336.664 175.262C335.722 169.808 332.82 164.885 328.504 161.419C317.353 153.275 300.717 158.71 288.186 158.992C283.532 159.092 278.796 159.192 274.043 159.225Z" fill="#CECECE"/>
<path d="M240.006 273.117C273.701 273.117 301.016 271.413 301.016 269.311C301.016 267.209 273.701 265.505 240.006 265.505C206.311 265.505 178.997 267.209 178.997 269.311C178.997 271.413 206.311 273.117 240.006 273.117Z" fill="#CECECE"/>
<path d="M316.139 107.389C317.039 107.389 317.768 106.66 317.768 105.76C317.768 104.861 317.039 104.132 316.139 104.132C315.24 104.132 314.511 104.861 314.511 105.76C314.511 106.66 315.24 107.389 316.139 107.389Z" fill="#CFCFCF"/>
<path d="M207.798 93.7446C208.698 93.7446 209.427 93.0154 209.427 92.1159C209.427 91.2164 208.698 90.4872 207.798 90.4872C206.899 90.4872 206.169 91.2164 206.169 92.1159C206.169 93.0154 206.899 93.7446 207.798 93.7446Z" fill="#CFCFCF"/>
<path d="M227.491 248.82C228.391 248.82 229.12 248.09 229.12 247.191C229.12 246.291 228.391 245.562 227.491 245.562C226.592 245.562 225.863 246.291 225.863 247.191C225.863 248.09 226.592 248.82 227.491 248.82Z" fill="#CFCFCF"/>
<path d="M270.968 86V93.1463" stroke="#BABABA" stroke-linecap="round" stroke-linejoin="round"/>
<path d="M267.395 89.5732H274.541" stroke="#BABABA" stroke-linecap="round" stroke-linejoin="round"/>
<path d="M154.533 116.081V123.227" stroke="#BABABA" stroke-linecap="round" stroke-linejoin="round"/>
<path d="M150.944 119.654H158.107" stroke="#BABABA" stroke-linecap="round" stroke-linejoin="round"/>
<path d="M159.918 215.647V222.81" stroke="#BABABA" stroke-linecap="round" stroke-linejoin="round"/>
<path d="M156.328 219.221H163.491" stroke="#BABABA" stroke-linecap="round" stroke-linejoin="round"/>
<path d="M307.581 142.373V149.519" stroke="#BABABA" stroke-linecap="round" stroke-linejoin="round"/>
<path d="M304.007 145.946H311.154" stroke="#BABABA" stroke-linecap="round" stroke-linejoin="round"/>
<path d="M257.771 100.679L174.354 111.633C168.947 112.343 165.14 117.301 165.85 122.708L178.565 219.535C179.275 224.941 184.233 228.749 189.64 228.039L273.057 217.085C278.464 216.375 282.271 211.417 281.561 206.01L268.847 109.183C268.137 103.777 263.178 99.9691 257.771 100.679Z" fill="#9A9A9A"/>
<path d="M282.07 114.884H197.81C192.348 114.884 187.921 119.312 187.921 124.773V222.578C187.921 228.039 192.348 232.466 197.81 232.466H282.07C287.531 232.466 291.958 228.039 291.958 222.578V124.773C291.958 119.312 287.531 114.884 282.07 114.884Z" fill="white" stroke="#BABABA" stroke-linecap="round" stroke-linejoin="round"/>
<path d="M200.502 192.264L217.354 164.792C217.52 164.391 217.801 164.048 218.162 163.806C218.523 163.565 218.948 163.436 219.382 163.436C219.816 163.436 220.24 163.565 220.601 163.806C220.962 164.048 221.244 164.391 221.409 164.792L230.965 180.365C231.128 180.767 231.407 181.112 231.767 181.355C232.126 181.598 232.551 181.728 232.985 181.728C233.419 181.728 233.843 181.598 234.203 181.355C234.563 181.112 234.842 180.767 235.004 180.365L251.357 153.774C251.52 153.371 251.799 153.026 252.158 152.783C252.518 152.54 252.942 152.41 253.377 152.41C253.811 152.41 254.235 152.54 254.595 152.783C254.955 153.026 255.234 153.371 255.396 153.774L279.394 192.879L200.502 192.264Z" fill="white" stroke="#BABABA" stroke-linecap="round" stroke-linejoin="round"/>
<path d="M234.106 161.103C237.034 161.103 239.408 158.729 239.408 155.801C239.408 152.873 237.034 150.5 234.106 150.5C231.179 150.5 228.805 152.873 228.805 155.801C228.805 158.729 231.179 161.103 234.106 161.103Z" fill="white" stroke="#BABABA" stroke-linecap="round" stroke-linejoin="round"/>
</svg>
