<svg width="22" height="22" viewBox="0 0 22 22" fill="none" xmlns="http://www.w3.org/2000/svg">
<path d="M11 4.75C11 4.5111 11 4.39166 11.0799 4.31748C11.1598 4.24329 11.273 4.2517 11.4996 4.26851C12.5103 4.34352 13.4935 4.64541 14.375 5.15433C15.4011 5.74676 16.2532 6.59887 16.8457 7.625C17.4381 8.65113 17.75 9.81513 17.75 11C17.75 12.1849 17.4381 13.3489 16.8457 14.375C16.2532 15.4011 15.4011 16.2532 14.375 16.8457C13.3489 17.4381 12.1849 17.75 11 17.75C9.81513 17.75 8.65113 17.4381 7.625 16.8457C6.74353 16.3368 5.99048 15.6362 5.42014 14.7984C5.29232 14.6106 5.22841 14.5167 5.25271 14.4104C5.27701 14.3042 5.38045 14.2444 5.58734 14.125L10.75 11.1443C10.872 11.0739 10.933 11.0387 10.9665 10.9807C11 10.9226 11 10.8522 11 10.7113V4.75Z" fill="white"/>
<circle cx="11" cy="11" r="10" stroke="white" stroke-width="2"/>
</svg>
