<svg width="24" height="24" viewBox="0 0 24 24" fill="none" xmlns="http://www.w3.org/2000/svg">
<g id="Spotify">
<g id="Spotify_2">
<rect id="Rectangle" width="24" height="24" rx="12" fill="#1ED760"/>
<path id="Vector" d="M17.5156 17.3053C17.3007 17.6633 16.8424 17.7636 16.4843 17.5488C13.6626 15.83 10.1248 15.4433 5.94246 16.3886C5.54141 16.4745 5.14036 16.231 5.05442 15.83C4.96849 15.4289 5.21198 15.0279 5.61303 14.9419C10.1821 13.8964 14.1066 14.3404 17.2577 16.274C17.6158 16.4888 17.7304 16.9472 17.5156 17.3053ZM18.9765 14.0396C18.7044 14.4836 18.1315 14.6125 17.6874 14.3547C14.4647 12.3638 9.55189 11.7908 5.74194 12.951C5.24063 13.0943 4.72499 12.8221 4.58176 12.3351C4.43853 11.8338 4.71067 11.3182 5.21198 11.175C9.56621 9.85723 14.9804 10.4874 18.6901 12.7648C19.1054 13.0226 19.2487 13.5956 18.9765 14.0396ZM19.1054 10.6307C15.2382 8.33897 8.86438 8.12413 5.16901 9.24133C4.58176 9.42753 3.95154 9.0981 3.76534 8.49653C3.57914 7.90928 3.9229 7.27906 4.51014 7.09286C8.74979 5.80378 15.7968 6.06159 20.237 8.69705C20.7669 9.01216 20.9388 9.69967 20.6237 10.2296C20.3229 10.7739 19.6354 10.9601 19.1054 10.6307Z" fill="white"/>
</g>
</g>
</svg>
