<svg width="24" height="24" viewBox="0 0 24 24" fill="none" xmlns="http://www.w3.org/2000/svg">
<g id="YouTube">
<g id="YouTube_2">
<rect id="Rectangle" width="24" height="24" rx="12" fill="#FF0000"/>
<path id="Exclude" d="M12 6.74854C12.014 6.74854 16.6971 6.74905 17.8691 7.06982C18.5116 7.24283 19.0184 7.74962 19.1914 8.39209C19.5112 9.56077 19.5001 11.9909 19.5 12.0122C19.5 12.0122 19.5003 14.4468 19.1914 15.6206C19.0184 16.2629 18.5114 16.7689 17.8691 16.9419C16.6971 17.2503 12.014 17.2515 12 17.2515C12 17.2515 7.31702 17.2514 6.13086 16.9302C5.48838 16.7572 4.98157 16.2504 4.80859 15.6079C4.49971 14.4464 4.5 11.9995 4.5 11.9995C4.50002 11.9605 4.50223 9.55637 4.80859 8.39209C4.98156 7.74966 5.50081 7.23114 6.13086 7.05811C7.30466 6.74921 12 6.74854 12 6.74854ZM10.5049 14.2485L14.4092 11.9995L10.5049 9.75146V14.2485Z" fill="white"/>
</g>
</g>
</svg>
